<svg xmlns="http://www.w3.org/2000/svg" width="67.646" height="83.762" viewBox="0 0 67.646 83.762">
    <defs>
        <style>
            .cls-1{fill:#fff}.cls-2{clip-path:url(#clip-path)}
        </style>
        <clipPath id="clip-path">
            <path id="Path_116" d="M0 13.795h67.646v-83.762H0z" class="cls-1" data-name="Path 116" transform="translate(0 69.967)"/>
        </clipPath>
    </defs>
    <g id="Group_227" data-name="Group 227" transform="translate(0 69.967)">
        <g id="Group_205" class="cls-2" data-name="Group 205" transform="translate(0 -69.967)">
            <g id="Group_204" data-name="Group 204">
                <path id="Path_115" d="M7.912.017a24.413 24.413 0 0 0-7.9 2.193 13.32 13.32 0 0 1-12.027.11A21.863 21.863 0 0 0-26.318.387a16.559 16.559 0 0 0-13.314 13.707c-1.367 8.2.1 15.624 4.364 22.073a28.45 28.45 0 0 1 2.355 4.817l.125.3a3.987 3.987 0 0 1 .04 1.079l-.013.439a104.507 104.507 0 0 0 1.592 22.2c.8 4.112 4.74 15.527 9.333 18.078.02.011.042.01.061.019s.034.03.055.04a5.562 5.562 0 0 0 2.3.532 4.818 4.818 0 0 0 2.847-.949c6.29-4.5 6.776-16.626 6.812-19.011a3.714 3.714 0 0 1 3.334-3.771 3.635 3.635 0 0 1 3.454 3.8c.035 2.356.522 14.483 6.811 18.982a4.821 4.821 0 0 0 2.847.949 5.567 5.567 0 0 0 2.3-.532 1.757 1.757 0 0 0 .213-.116 17.771 17.771 0 0 0 6.305-7.943A45.64 45.64 0 0 0 19.1 61.706c.565-4.507 1.1-17.212 1.034-19.181A6.7 6.7 0 0 1 21 38.951l.358-.654a21.272 21.272 0 0 1 1.149-1.948 28.766 28.766 0 0 0 5.003-17.594 21.022 21.022 0 0 0-2.591-10.431A17.555 17.555 0 0 0 7.912.017" class="cls-1" data-name="Path 115" transform="translate(40.128 .086)"/>
            </g>
        </g>
    </g>
</svg>
